HIERARCHY
ROOT Hips
{
	OFFSET	0.00	0.00	0.00
	CHANNELS 6 Xposition Yposition Zposition Zrotation Xrotation Yrotation
	JOINT LeftUpLeg
	{
		OFFSET	 0.126116	-0.014019	-0.065224
		CHANNELS 3 Zrotation Xrotation Yrotation
		JOINT LeftLeg
		{
			OFFSET	 0.000000	 0.000000	 0.569914
			CHANNELS 3 Zrotation Xrotation Yrotation
			JOINT LeftFoot
			{
				OFFSET	 0.000000	 0.000000	 0.544423
				CHANNELS 3 Zrotation Xrotation Yrotation
				JOINT LeftToeBase
				{
					OFFSET	 0.000000	 0.000000	 0.207117
					CHANNELS 3 Zrotation Xrotation Yrotation
					End Site
					{
						OFFSET	 0.000000	 0.000000	 0.207117
					}
				}
			}
		}
	}
	JOINT RightUpLeg
	{
		OFFSET	-0.124023	-0.008373	-0.065224
		CHANNELS 3 Zrotation Xrotation Yrotation
		JOINT RightLeg
		{
			OFFSET	 0.000000	 0.000000	 0.570047
			CHANNELS 3 Zrotation Xrotation Yrotation
			JOINT RightFoot
			{
				OFFSET	 0.000000	 0.000000	 0.544354
				CHANNELS 3 Zrotation Xrotation Yrotation
				JOINT RightToeBase
				{
					OFFSET	 0.000000	 0.000000	 0.207540
					CHANNELS 3 Zrotation Xrotation Yrotation
					End Site
					{
						OFFSET	 0.000000	 0.000000	 0.207540
					}
				}
			}
		}
	}
	JOINT Spine
	{
		OFFSET	 0.000184	-0.007763	 0.117403
		CHANNELS 3 Zrotation Xrotation Yrotation
		JOINT Spine1
		{
			OFFSET	 0.000000	 0.000000	 0.137269
			CHANNELS 3 Zrotation Xrotation Yrotation
			JOINT Spine2
			{
				OFFSET	 0.000000	 0.000000	 0.156879
				CHANNELS 3 Zrotation Xrotation Yrotation
				JOINT LeftShoulder
				{
					OFFSET	 0.080501	-0.002496	 0.160144
					CHANNELS 3 Zrotation Xrotation Yrotation
					JOINT LeftArm
					{
						OFFSET	 0.000000	 0.000000	 0.164363
						CHANNELS 3 Zrotation Xrotation Yrotation
						JOINT LeftForeArm
						{
							OFFSET	 0.000000	 0.000000	 0.364576
							CHANNELS 3 Zrotation Xrotation Yrotation
							JOINT LeftHand
							{
								OFFSET	 0.000000	 0.000000	 0.360812
								CHANNELS 3 Zrotation Xrotation Yrotation
								JOINT LeftHandIndex1
								{
									OFFSET	 0.000000	 0.000000	 0.086006
									CHANNELS 3 Zrotation Xrotation Yrotation
									JOINT LeftHandIndex2
									{
										OFFSET	 0.000000	 0.000000	 0.047236
										CHANNELS 3 Zrotation Xrotation Yrotation
										JOINT LeftHandIndex3
										{
											OFFSET	-0.004284	-0.000551	 0.038166
											CHANNELS 3 Zrotation Xrotation Yrotation
											End Site
											{
												OFFSET	-0.004284	-0.000551	 0.038166
											}
										}
									}
								}
							}
						}
					}
				}
				JOINT Neck
				{
					OFFSET	 0.000000	 0.000000	 0.176489
					CHANNELS 3 Zrotation Xrotation Yrotation
					JOINT Head
					{
						OFFSET	 0.000000	-0.001747	 0.077940
						CHANNELS 3 Zrotation Xrotation Yrotation
						End Site
						{
							OFFSET	 0.000000	-0.001747	 0.077940
						}
					}
				}
				JOINT RightShoulder
				{
					OFFSET	-0.080363	 0.000306	 0.159706
					CHANNELS 3 Zrotation Xrotation Yrotation
					JOINT RightArm
					{
						OFFSET	 0.000000	 0.000000	 0.164196
						CHANNELS 3 Zrotation Xrotation Yrotation
						JOINT RightForeArm
						{
							OFFSET	 0.000000	 0.000000	 0.365611
							CHANNELS 3 Zrotation Xrotation Yrotation
							JOINT RightHand
							{
								OFFSET	 0.000000	 0.000000	 0.360648
								CHANNELS 3 Zrotation Xrotation Yrotation
								JOINT RightHandIndex1
								{
									OFFSET	 0.000000	 0.000000	 0.069977
									CHANNELS 3 Zrotation Xrotation Yrotation
									JOINT RightHandIndex2
									{
										OFFSET	 0.000000	 0.000000	 0.052305
										CHANNELS 3 Zrotation Xrotation Yrotation
										JOINT RightHandIndex3
										{
											OFFSET	 0.009002	-0.000782	 0.042196
											CHANNELS 3 Zrotation Xrotation Yrotation
											End Site
											{
												OFFSET	 0.009002	-0.000782	 0.042196
											}
										}
									}
								}
							}
						}
					}
				}
			}
		}
	}
}
MOTION
Frames:    7
Frame Time: 0.03333334
-0.029847	 0.239854	 1.083597	 0.580375	 32.093100	-6.315285	 35.479900	-74.985410	-151.113100	 4.557304	-64.837360	 4.503894	 29.621110	 73.593060	-37.599310	-2.385832	 28.452790	-0.000001	 26.166990	-79.075150	-152.602700	-13.668230	-66.964070	-7.851243	-2.446534	 72.101010	 21.450820	 2.384659	 28.388700	-0.000001	 23.482160	 13.736700	 1.940617	-2.912702	 17.560680	 4.096851	 2.535893	 0.423139	 0.995382	-98.880010	 68.369330	 157.408500	 2.251862	-7.813817	-52.334550	 1.616185	-0.942782	-6.270707	-3.881291	-53.899620	 0.653091	-2.027600	 6.559038	 9.033609	-5.188889	 0.308190	 3.541030	-5.234859	 0.342567	 0.430617	-0.117652	 14.509680	-4.900022	 4.314520	-23.814400	 0.648742	 97.288730	 64.430890	-159.884200	-12.692390	 8.057164	 62.640290	-15.063160	-4.042125	 27.417720	-14.838860	-51.369270	-5.387174	 1.803333	 3.979147	-15.098590	 4.898592	 3.004813	-9.310344	 5.224449	 0.395017	 2.014677
-0.026843	 0.237846	 1.102016	 0.652508	 30.874560	-5.952341	 30.900250	-72.231990	-155.715600	 3.993042	-62.041400	 3.896619	 27.895570	 72.524720	-35.718920	-2.385832	 28.452790	-0.000001	 16.724690	-76.437580	-161.232600	-13.026080	-64.219230	-7.103933	-2.027848	 71.164790	 20.999510	 2.384659	 28.388700	-0.000001	 21.218400	 13.249480	 1.743245	-2.751345	 17.519010	 3.791258	 2.464213	-0.382971	 0.782860	-98.397780	 68.874380	 158.156700	 2.811262	-5.083281	-53.054960	 4.569403	-1.576765	-7.767254	-3.956312	-49.532200	-1.464663	-2.027600	 6.559038	 9.033609	-5.188889	 0.308190	 3.541030	-5.234859	 0.342567	 0.430617	-0.582691	 10.325440	-3.904367	 3.894798	-19.722200	-0.119818	 97.038930	 64.050160	-160.873200	-13.975810	 7.914640	 60.552740	-16.403280	-6.056350	 33.046380	-14.503560	-46.665340	-1.978070	 1.803333	 3.979147	-15.098590	 4.898592	 3.004813	-9.310344	 5.224449	 0.395017	 2.014677
-0.023455	 0.235348	 1.121147	 0.686948	 29.521820	-5.460666	 27.364810	-69.192280	-159.412000	 3.537067	-59.125770	 3.394786	 26.417590	 71.479230	-34.012210	-2.385833	 28.452760	 0.000004	 9.790306	-73.350270	-167.362700	-12.587720	-61.310730	-6.536356	-1.378483	 70.268490	 20.328750	 2.384659	 28.388700	-0.000001	 18.343300	 12.690460	 1.517910	-2.696959	 17.601620	 3.556343	 2.392785	-1.511995	 0.531980	-97.565090	 70.059070	 158.994600	 3.618243	-1.710577	-53.830120	 7.508364	-2.323965	-9.176033	-4.514579	-45.013740	-4.535350	-2.027600	 6.559038	 9.033609	-5.188889	 0.308190	 3.541030	-5.234859	 0.342567	 0.430617	-0.927364	 5.013964	-2.786354	 3.436151	-14.632510	-1.126895	 96.716610	 64.274670	-161.519600	-15.471080	 8.952467	 58.585920	-17.926760	-8.601668	 38.307460	-14.612140	-41.303670	 1.161285	 1.803333	 3.979147	-15.098590	 4.898592	 3.004813	-9.310344	 5.224449	 0.395017	 2.014677
-0.020365	 0.232696	 1.139649	 0.699205	 28.105070	-4.908879	 24.611060	-66.084720	-162.425900	 3.338139	-56.250240	 3.123294	 24.940590	 70.511630	-32.362770	-2.385833	 28.452760	 0.000004	 4.649419	-70.079380	-171.730700	-12.372240	-58.387940	-6.162715	-0.829140	 69.423310	 19.829770	 2.384659	 28.388700	-0.000001	 15.098040	 12.193220	 1.324042	-2.612327	 17.787720	 3.296231	 2.339008	-2.751875	 0.339678	-96.275220	 72.136720	 159.764000	 4.452758	 2.320501	-55.146750	 10.316010	-3.140144	-10.452140	-5.073625	-40.565930	-7.516481	-2.027600	 6.559038	 9.033609	-5.188889	 0.308190	 3.541030	-5.234859	 0.342567	 0.430617	-1.179169	-0.521154	-2.283007	 3.230283	-9.293606	-1.617868	 96.068270	 65.394620	-162.284300	-16.990070	 10.927980	 57.762320	-19.241990	-11.313370	 42.784700	-14.731030	-36.406860	 3.940436	 1.803333	 3.979147	-15.098590	 4.898592	 3.004813	-9.310344	 5.224449	 0.395017	 2.014677
-0.017910	 0.229428	 1.157911	 0.715133	 26.559050	-4.358930	 22.274270	-62.796180	-165.083500	 3.311579	-53.344330	 2.992343	 23.139380	 69.563390	-30.458340	-2.385833	 28.452750	 0.000004	 0.581848	-66.555560	-175.011200	-11.893960	-55.422150	-5.564018	-0.774264	 68.614880	 19.634300	 2.384659	 28.388700	-0.000001	 11.426750	 11.718730	 1.213687	-2.471584	 18.052590	 3.011068	 2.292228	-4.149244	 0.189814	-94.621030	 74.699600	 160.465700	 5.514337	 6.654326	-56.976060	 13.088860	-4.031694	-11.633990	-5.499659	-36.224670	-10.474240	-2.027600	 6.559038	 9.033609	-5.188889	 0.308190	 3.541030	-5.234859	 0.342567	 0.430617	-1.411550	-6.600945	-2.254965	 3.149357	-3.447345	-1.789281	 95.229820	 67.025510	-163.138700	-18.597330	 13.332590	 57.580940	-20.278700	-14.185720	 46.925870	-14.849030	-31.778530	 6.423940	 1.803333	 3.979147	-15.098590	 4.898592	 3.004813	-9.310344	 5.224449	 0.395017	 2.014677
-0.015938	 0.225193	 1.175736	 0.810972	 24.983770	-3.857575	 20.160100	-59.440080	-167.478500	 3.320712	-50.417050	 2.939609	 21.128290	 68.574040	-28.381560	-2.385833	 28.452750	 0.000004	-2.535145	-62.907440	-177.326200	-10.864820	-52.472630	-4.540756	-1.103534	 67.903590	 19.378710	 2.384659	 28.388700	-0.000001	 7.525485	 11.209650	 1.148567	-2.299927	 18.335630	 2.679445	 2.254750	-5.634568	 0.093996	-92.888790	 77.116870	 161.103000	 6.906082	 10.530380	-59.028760	 15.691380	-4.933194	-12.669790	-5.666882	-32.354030	-13.233060	-2.027600	 6.559038	 9.033609	-5.188889	 0.308190	 3.541030	-5.234859	 0.342567	 0.430617	-1.660607	-12.915510	-2.569994	 3.110150	 2.570924	-1.782664	 94.380350	 68.708820	-163.996400	-20.277210	 15.604130	 57.511160	-20.834400	-17.030760	 50.954230	-14.884540	-27.609000	 8.467196	 1.803333	 3.979147	-15.098590	 4.898592	 3.004813	-9.310344	 5.224449	 0.395017	 2.014677
-0.013432	 0.218344	 1.196234	 1.454466	 23.478210	-3.386007	 18.758240	-55.571380	-169.070700	 3.497775	-46.769820	 2.805132	 19.686350	 67.321400	-26.618290	-2.385833	 28.452750	 0.000004	-5.486278	-58.703480	-179.078500	-9.514299	-48.895870	-3.294129	-0.774027	 66.905440	 18.315570	 2.384659	 28.388700	-0.000001	 2.889735	 10.141230	 0.665547	-2.244728	 18.109960	 2.250533	 2.241626	-7.223018	-0.236915	-93.805400	 75.467820	 163.021800	 8.376137	 11.685540	-59.251470	 18.511010	-5.953938	-13.694710	-4.851121	-28.205660	-16.349600	-2.027600	 6.559038	 9.033609	-5.188889	 0.308190	 3.541030	-5.234859	 0.342567	 0.430617	-1.667350	-14.449080	-1.191706	 3.074976	 4.079170	-2.597622	 93.852870	 69.483090	-164.917000	-22.139710	 18.026820	 56.228340	-21.146470	-20.177750	 55.083270	-14.880100	-23.158520	 10.473020	 1.803333	 3.979147	-15.098590	 4.898592	 3.004813	-9.310344	 5.224449	 0.395017	 2.014677
